<svg aria-hidden="true" style="position: absolute; width: 0; height: 0; overflow: hidden;" version="1.1" xmlns="http://www.w3.org/2000/svg" xmlns:xlink="http://www.w3.org/1999/xlink">
<defs>
<symbol id="icon-close" viewBox="0 0 32 32">
<path d="M19.141 16.123l10.676-10.668c0.36-0.42 0.548-0.96 0.527-1.513s-0.251-1.077-0.642-1.467c-0.391-0.391-0.915-0.62-1.469-0.641s-1.093 0.167-1.514 0.526l-10.676 10.558-10.742-10.734c-0.42-0.36-0.961-0.548-1.514-0.526s-1.077 0.25-1.469 0.641c-0.391 0.391-0.62 0.915-0.642 1.467s0.167 1.093 0.527 1.513l10.72 10.844-10.501 10.361c-0.23 0.197-0.417 0.439-0.549 0.711s-0.206 0.569-0.218 0.871 0.039 0.604 0.15 0.885c0.11 0.282 0.278 0.538 0.492 0.751s0.47 0.381 0.752 0.492c0.282 0.11 0.584 0.161 0.886 0.15s0.599-0.086 0.872-0.217c0.273-0.132 0.515-0.318 0.712-0.548l10.479-10.471 10.413 10.405c0.42 0.359 0.961 0.547 1.514 0.526s1.077-0.25 1.469-0.641c0.391-0.391 0.621-0.915 0.642-1.467s-0.167-1.093-0.527-1.512l-10.369-10.295z"></path>
</symbol>
<symbol id="left-arrow" viewBox="0 0 37 32">
<path fill="#fefefe" style="fill: var(--color1, #fefefe)" d="M2.667 21.333v-16c0-2.946 2.388-5.333 5.333-5.333h21.333c2.946 0 5.333 2.388 5.333 5.333v16c0 2.946-2.388 5.333-5.333 5.333h-21.333c-2.946 0-5.333-2.388-5.333-5.333z"></path>
<path fill="#2c2c2c" style="fill: var(--color2, #2c2c2c)" d="M11.634 13.937l9.288 8.85c0.155 0.148 0.361 0.23 0.575 0.23s0.42-0.082 0.575-0.23l0.010-0.010c0.075-0.072 0.135-0.158 0.176-0.253s0.062-0.198 0.062-0.302-0.021-0.207-0.062-0.302c-0.041-0.096-0.101-0.182-0.176-0.253l-8.747-8.333 8.747-8.33c0.075-0.072 0.135-0.158 0.176-0.253s0.062-0.198 0.062-0.302-0.021-0.207-0.062-0.302c-0.041-0.096-0.101-0.182-0.176-0.253l-0.010-0.010c-0.155-0.148-0.361-0.23-0.575-0.23s-0.42 0.082-0.575 0.23l-9.288 8.85c-0.082 0.078-0.147 0.171-0.191 0.275s-0.067 0.215-0.067 0.328c0 0.113 0.023 0.225 0.067 0.328s0.109 0.197 0.191 0.275z"></path>
</symbol>
<symbol id="right-arrow" viewBox="0 0 37 32">
<path fill="#fefefe" style="fill: var(--color1, #fefefe)" d="M34.667 5.333v16c0 2.946-2.388 5.333-5.333 5.333h-21.333c-2.946 0-5.333-2.388-5.333-5.333v-16c0-2.946 2.388-5.333 5.333-5.333h21.333c2.946 0 5.333 2.388 5.333 5.333z"></path>
<path fill="#2c2c2c" style="fill: var(--color2, #2c2c2c)" d="M25.7 12.73l-9.288-8.85c-0.155-0.148-0.361-0.23-0.575-0.23s-0.42 0.082-0.575 0.23l-0.010 0.010c-0.075 0.072-0.135 0.158-0.176 0.253s-0.062 0.198-0.062 0.302 0.021 0.207 0.062 0.302c0.041 0.096 0.101 0.182 0.176 0.253l8.747 8.333-8.747 8.33c-0.075 0.072-0.135 0.158-0.176 0.253s-0.062 0.198-0.062 0.302 0.021 0.207 0.062 0.302c0.041 0.096 0.101 0.182 0.176 0.253l0.010 0.010c0.155 0.148 0.361 0.23 0.575 0.23s0.42-0.082 0.575-0.23l9.288-8.85c0.082-0.078 0.147-0.171 0.191-0.275s0.067-0.215 0.067-0.328c0-0.113-0.023-0.225-0.067-0.328s-0.109-0.197-0.191-0.275z"></path>
</symbol>
</defs>
</svg>
